<svg width="44" height="30" viewBox="0 0 44 30" fill="none" xmlns="http://www.w3.org/2000/svg">
<path d="M0 4.1382H0.18C0.774 3.2742 1.71 2.8602 2.718 2.8602H2.754V10.9062C2.754 12.2202 2.538 12.7602 2.214 13.1202V13.3002H6.012V13.1202C5.688 12.7602 5.454 12.2202 5.454 10.9062V2.8602H5.49C6.498 2.8602 7.434 3.2742 8.028 4.1382H8.208V0.700195H0V4.1382Z" fill="white"/>
<path d="M10.9028 13.1202C10.6328 12.7782 10.5428 12.2382 10.7768 10.9782H13.3688C13.6028 12.2382 13.4948 12.7782 13.2428 13.1202V13.3002H17.0588V13.1202C16.6808 12.7602 16.3568 12.2202 16.0688 10.9062L14.3768 3.0942C14.0888 1.7802 14.2148 1.2402 14.4848 0.880195V0.700195H9.8768V0.880195C10.1468 1.2402 10.2728 1.7802 9.9848 3.0942L8.2928 10.9062C8.0048 12.2202 7.6808 12.7602 7.3028 13.1202V13.3002H10.9028V13.1202ZM12.0728 3.8322L13.0088 8.9082H11.1368L12.0728 3.8322Z" fill="white"/>
<path d="M26.1391 13.1202C25.6891 12.7602 25.2751 12.2202 24.8071 10.9062L23.7991 8.1162C24.8431 7.8822 25.2931 7.1622 25.2931 5.8122V3.0762C25.2931 1.4022 24.6091 0.700195 22.9171 0.700195H17.3551V0.880195C17.6611 1.2402 17.8951 1.7802 17.8951 3.0942V10.9062C17.8951 12.2202 17.6791 12.7602 17.3551 13.1202V13.3002H21.1531V13.1202C20.8291 12.7602 20.5951 12.2202 20.5951 10.9062V8.1882H21.1171L22.8811 13.3002H26.1391V13.1202ZM22.5931 5.0202C22.5931 5.7582 22.3051 6.0282 21.5851 6.0282H20.5951V2.8602H21.5851C22.3051 2.8602 22.5931 3.1302 22.5931 3.8682V5.0202Z" fill="white"/>
<path d="M26.6573 3.0762V10.9242C26.6573 12.5982 27.3413 13.3002 29.0333 13.3002H31.9493C33.6413 13.3002 34.3253 12.5982 34.3253 10.9242V3.0762C34.3253 1.4022 33.6413 0.700195 31.9493 0.700195H29.0333C27.3413 0.700195 26.6573 1.4022 26.6573 3.0762ZM31.6253 10.1682C31.6253 10.8882 31.3553 11.1402 30.6533 11.1402H30.3293C29.6273 11.1402 29.3573 10.8882 29.3573 10.1682V3.8322C29.3573 3.1122 29.6273 2.8602 30.3293 2.8602H30.6533C31.3553 2.8602 31.6253 3.1122 31.6253 3.8322V10.1682Z" fill="white"/>
<path d="M35.1738 4.1382H35.3538C35.9478 3.2742 36.8838 2.8602 37.8918 2.8602H37.9278V10.9062C37.9278 12.2202 37.7118 12.7602 37.3878 13.1202V13.3002H41.1858V13.1202C40.8618 12.7602 40.6278 12.2202 40.6278 10.9062V2.8602H40.6638C41.6718 2.8602 42.6078 3.2742 43.2018 4.1382H43.3818V0.700195H35.1738V4.1382Z" fill="white"/>
<path d="M5.39831 19.9402C5.39831 19.1482 5.70431 18.8602 6.47831 18.8602H6.74831C7.75631 18.8602 8.69231 19.2742 9.28631 20.1382H9.46631V16.7002H5.07431C3.38231 16.7002 2.69831 17.4022 2.69831 19.0762V26.9242C2.69831 28.5982 3.38231 29.3002 5.07431 29.3002H7.64831C9.34031 29.3002 10.0243 28.5982 10.0243 26.9242V22.1002H6.96431V22.2802C7.27031 22.6402 7.50431 23.1802 7.50431 24.4942V26.2402C7.50431 26.9062 7.27031 27.1402 6.60431 27.1402H6.29831C5.63231 27.1402 5.39831 26.9062 5.39831 26.2402V19.9402Z" fill="white"/>
<path d="M13.8735 29.1202C13.6035 28.7782 13.5135 28.2382 13.7475 26.9782H16.3395C16.5735 28.2382 16.4655 28.7782 16.2135 29.1202V29.3002H20.0295V29.1202C19.6515 28.7602 19.3275 28.2202 19.0395 26.9062L17.3475 19.0942C17.0595 17.7802 17.1855 17.2402 17.4555 16.8802V16.7002H12.8475V16.8802C13.1175 17.2402 13.2435 17.7802 12.9555 19.0942L11.2635 26.9062C10.9755 28.2202 10.6515 28.7602 10.2735 29.1202V29.3002H13.8735V29.1202ZM15.0435 19.8322L15.9795 24.9082H14.1075L15.0435 19.8322Z" fill="white"/>
<path d="M25.2218 16.7002H20.2898V16.8802C20.6138 17.2402 20.8298 17.7802 20.8298 19.0942V26.9062C20.8298 28.2202 20.6138 28.7602 20.2898 29.1202V29.3002H23.6378V29.1202C23.3138 28.7602 23.0798 28.2202 23.0798 26.9062V20.3722L24.8798 28.0222C24.9698 28.3822 25.0778 28.9042 25.0958 29.3002H27.0758C27.0938 28.9042 27.2018 28.3822 27.2918 28.0222L29.0918 20.3722V26.9062C29.0918 28.2202 28.8578 28.7602 28.5338 29.1202V29.3002H32.3318V29.1202C32.0078 28.7602 31.7918 28.2202 31.7918 26.9062V19.0942C31.7918 17.7802 32.0078 17.2402 32.3318 16.8802V16.7002H27.1658L27.1478 16.8802C27.3998 17.2402 27.4898 17.7802 27.2018 19.0942L26.1938 23.7742L25.1858 19.0942C24.8978 17.7802 24.9878 17.2402 25.2398 16.8802L25.2218 16.7002Z" fill="white"/>
<path d="M33.2633 29.3002H40.7873V25.8622H40.6073C40.0133 26.7262 39.2573 27.1402 37.7993 27.1402H36.5033V23.9722H37.2773C38.4473 23.9722 39.1313 24.0802 39.4913 24.3862H39.6713V21.5422H39.4913C39.1313 21.8482 38.4473 21.9562 37.2773 21.9562H36.5033V18.8602H37.7993C39.2573 18.8602 40.0133 19.2742 40.6073 20.1382H40.7873V16.7002H33.2633V16.8802C33.5693 17.2402 33.8033 17.7802 33.8033 19.0942V26.9062C33.8033 28.2202 33.5693 28.7602 33.2633 29.1202V29.3002Z" fill="white"/>
</svg>
