<svg width="37" height="28" viewBox="0 0 37 28" fill="none" xmlns="http://www.w3.org/2000/svg">
<path d="M31.3633 27.0175C31.8281 27.3593 32.498 27.2226 32.8672 26.6757C35.2598 23.2167 36.6953 18.8281 36.6953 14.0019C36.6953 9.16204 35.2188 4.80071 32.8672 1.32806C32.498 0.767509 31.8281 0.644462 31.3633 0.986259C30.8438 1.34173 30.7754 1.98431 31.1445 2.54485C33.2637 5.67571 34.6035 9.61321 34.6035 14.0019C34.6035 18.3769 33.2637 22.3417 31.1445 25.4589C30.7754 26.0195 30.8438 26.662 31.3633 27.0175ZM14.7383 26.0742C15.6406 26.0742 16.2832 25.4316 16.2832 24.5429V3.57024C16.2832 2.68157 15.6406 1.95696 14.7109 1.95696C14.0684 1.95696 13.6309 2.2304 12.9473 2.90032L7.10938 8.36907C7.02734 8.4511 6.9043 8.49212 6.76758 8.49212H2.85742C0.998047 8.49212 0 9.51751 0 11.4863V16.5722C0 18.5546 0.998047 19.5663 2.85742 19.5663H6.76758C6.9043 19.5663 7.02734 19.6074 7.10938 19.6894L12.9473 25.2128C13.5625 25.8144 14.0957 26.0742 14.7383 26.0742ZM26.2363 23.3945C26.7422 23.7363 27.3711 23.6132 27.7402 23.0937C29.4902 20.6874 30.5156 17.3788 30.5156 14.0019C30.5156 10.6249 29.5039 7.28899 27.7402 4.91009C27.3711 4.39056 26.7422 4.26751 26.2363 4.60931C25.7305 4.9511 25.6484 5.59368 26.0449 6.15423C27.5352 8.2597 28.3965 11.0898 28.3965 14.0019C28.3965 16.914 27.5078 19.7167 26.0449 21.8495C25.6621 22.4101 25.7305 23.0527 26.2363 23.3945ZM21.1641 19.8261C21.6152 20.1406 22.2578 20.0449 22.627 19.5117C23.6797 18.1308 24.3086 16.0937 24.3086 14.0019C24.3086 11.9101 23.6797 9.88665 22.627 8.49212C22.2578 7.95892 21.6152 7.84954 21.1641 8.17767C20.6035 8.56048 20.5215 9.24407 20.9453 9.80462C21.7383 10.8984 22.1895 12.4159 22.1895 14.0019C22.1895 15.5878 21.7246 17.0917 20.9453 18.1992C20.5352 18.7734 20.6035 19.4296 21.1641 19.8261Z" fill="white"/>
</svg>
