<svg width="26" height="26" viewBox="0 0 26 26" fill="none" xmlns="http://www.w3.org/2000/svg">
<path d="M19.2842 15.6694V1.68311C19.2842 0.794434 18.6279 0.0698242 17.7119 0.0698242C17.0557 0.0698242 16.6455 0.370605 15.9209 1.01318L9.94629 6.31787L11.4092 7.79443L16.7412 2.95459C16.8096 2.88623 16.8916 2.84521 16.9736 2.84521C17.0693 2.84521 17.1514 2.91357 17.1514 3.03662V13.5366L19.2842 15.6694ZM23.7275 25.6226C24.1377 26.0327 24.8213 26.0327 25.2178 25.6226C25.6279 25.1987 25.6279 24.5425 25.2178 24.1323L1.81152 0.726074C1.40137 0.315918 0.717773 0.315918 0.307617 0.726074C-0.102539 1.12256 -0.102539 1.81982 0.307617 2.21631L23.7275 25.6226ZM5.5166 17.6792H9.42676C9.5498 17.6792 9.65918 17.7202 9.75488 17.8022L15.9209 23.3257C16.5908 23.9136 17.083 24.187 17.7393 24.187C18.2725 24.187 18.71 23.9409 19.0244 23.4761L17.4385 21.9038L10.835 15.9839C10.5615 15.7378 10.3975 15.6831 10.042 15.6831H5.6123C5.09277 15.6831 4.86035 15.4507 4.86035 14.9448V9.31201L3.21973 7.67139C2.90527 8.10889 2.72754 8.72412 2.72754 9.53076V14.7671C2.72754 16.7495 3.65723 17.6792 5.5166 17.6792Z" fill="white"/>
</svg>
